<svg id="Capa_1" enable-background="new 0 0 512 512" height="512" viewBox="0 0 512 512" width="512" xmlns="http://www.w3.org/2000/svg"><g><path d="m505.67 255.997c0 39.692-4.709 69.523-20.832 103.052-1.014 2.108-.054 11.95-1.124 14.026-42.502 82.5-128.521 138.92-227.717 138.92-18.83 0-37.184-2.033-54.857-5.891-2.55-.557-5.087-7.079-7.608-7.711-83.594-20.962-146.617-76.033-174.868-156.472-.503-1.431-5.257-3.934-5.735-5.377-8.389-25.327-12.929-52.406-12.929-80.547 0-141.383 114.614-255.997 255.997-255.997 48.921 0 94.637 13.722 133.509 37.528 1.971 1.207 3.125 8.245 5.06 9.503 70.204 45.651 111.104 118.985 111.104 208.966z" fill="#d8ecfe"/><path d="m512 255.997c0 141.381-114.621 256.003-256.003 256.003-24.743 0-48.663-3.508-71.298-10.062 15.083 2.767 30.638 4.218 46.523 4.218 141.381 0 255.992-114.611 255.992-255.992 0-116.679-78.057-215.127-184.797-245.961 119.221 21.832 209.583 126.268 209.583 251.794z" fill="#c4e2ff"/><path d="m512 255.997c0 46.349-12.315 89.816-33.848 127.317-5.329-1.492-10.463-3.58-15.299-6.451-16.266-9.661-27.418-27.295-45.114-33.992-17.428-6.605-36.225-1.389-54.188-4.012-15.813-2.305-30.865-14.609-40.875-26.791-5.813-7.068-10.432-15.319-17.737-20.844-19.177-14.506-49.991-5.556-67.594-21.945-8.333-7.768-11.615-20.525-8.035-31.348 2.881-8.735 9.661-15.854 12.017-24.743 1.79-6.759.875-14.044 2.953-20.71 10.998-35.289 48.828-19.393 75.454-26.873 18.457-5.185 29.949-20.309 20.453-37.922-11.965-22.212-10.391-43.303 8.107-61.791 11.759-11.759 26.863-19.435 41.05-28.097.103-.062.195-.123.298-.185 73.396 45.01 122.358 125.978 122.358 218.387z" fill="#b0e7c9"/><path d="m512 255.997c0 46.349-12.315 89.816-33.848 127.317-5.329-1.492-10.463-3.58-15.299-6.451-2.294-1.368-4.486-2.891-6.615-4.527 19.753-36.307 30.978-77.933 30.978-122.173 0-85.372-41.791-160.991-106.031-207.494 2.737-1.615 5.463-3.23 8.159-4.877.103-.062.195-.123.298-.185 73.396 45.013 122.358 125.981 122.358 218.39z" fill="#91deb6"/><path d="m149.996 283.629c-3.216 2.203-6.643 4.177-10.384 5.275-12.1 3.55-25.646-3.159-32.504-13.741s-7.882-24.101-5.576-36.498c.821-4.415 2.063-8.824 4.432-12.64 4.159-6.702 11.463-10.965 19.065-13.069 7.601-2.105 15.583-2.289 23.469-2.46 3.592-.078 7.299-.136 10.635 1.197 11.112 4.439 15.788 25.817 15.804 36.663.022 14.703-13.678 27.557-24.941 35.273z" fill="#b0e7c9"/><path d="m174.936 248.353c.021 14.702-13.673 27.562-24.939 35.278-3.22 2.202-6.646 4.177-10.381 5.268-10.916 3.21-22.994-1.934-30.299-10.731 3.241.381 6.533.154 9.722-.782 3.735-1.091 7.171-3.066 10.381-5.268 11.266-7.716 24.97-20.576 24.939-35.278-.01-6.883-1.893-18.004-6.111-26.348h.247c3.591-.072 7.305-.134 10.638 1.204 11.112 4.434 15.793 25.814 15.803 36.657z" fill="#91deb6"/><path d="m210.832 464.623c3.683 14.321-.494 29.99-9.692 41.482-88.613-19.342-160.075-84.59-188.213-169.561 17.305-2.181 34.795-3.015 51.987-.422 13.19 1.996 26.204 6.122 37.768 12.83 10.864 6.296 20.443 10.206 32.356 14.753 26.482 10.124 74.219-14.62 90.002 18.272 12.613 26.276-19.887 43.139-17.809 68.386.401 4.897 2.377 9.506 3.601 14.26z" fill="#b0e7c9"/><path d="m202.334 504.541c-.381.535-.782 1.049-1.193 1.564-5.525-1.204-10.978-2.593-16.369-4.146-.01 0-.031-.01-.041-.01 5.802 1.059 11.677 1.933 17.603 2.592z" fill="#91deb6"/><g><path d="m169.765 84.882c0 28.807-14.35 54.262-36.291 69.607-2.466 1.725-5.368.428-8.017 1.888-12.134 6.688-25.732 10.02-40.567 10.02-16.118 0-29.26-3.332-42.096-11.133-1.552-.944-5.008.271-6.493-.767-21.947-15.345-36.301-40.803-36.301-69.615 0-46.879 38.003-84.882 84.882-84.882s84.883 38.003 84.883 84.882z" fill="#8ac9fe"/><path d="m169.765 84.879c0 28.809-14.35 54.266-36.29 69.612-3.381 2.365-9.212 2.514-12.929 4.374-11.415 5.712-22.023 7.533-35.655 7.533-13.838 0-26.907-3.177-38.451-9.051 6.132 1.399 12.5 5.374 19.054 5.374 46.873 0 84.878-38.005 84.878-84.878 0-33.046-18.879-61.678-46.431-75.69 37.696 8.64 65.824 42.406 65.824 82.726z" fill="#60b7ff"/><path d="m133.476 154.492c-13.763 9.621-30.528 15.275-48.597 15.275s-34.812-5.643-48.575-15.275c.559-4.69 1.414-9.029 2.487-13.061 12.634-47.216 79.552-47.216 92.175 0 1.086 4.032 1.929 8.371 2.51 13.061z" fill="#fef0ae"/><path d="m115.217 164.181c.144-.093.278-.185.422-.288-.638-5.103-1.554-9.825-2.726-14.208-6.862-25.628-28.406-38.468-50.001-38.519 24.743-12.428 59.343-2.335 68.057 30.268 1.08 4.033 1.924 8.364 2.51 13.056-5.628 3.929-11.75 7.201-18.262 9.691z" fill="#fee97d"/><circle cx="84.882" cy="79.637" fill="#fef0ae" r="35.663"/><path d="m120.546 79.632c0 19.702-15.967 35.669-35.659 35.669-10.957 0-20.762-4.938-27.305-12.716 3.128.895 6.44 1.379 9.856 1.379 19.702 0 35.669-15.967 35.669-35.669 0-8.735-3.148-16.739-8.364-22.943 14.897 4.279 25.803 18.004 25.803 34.28z" fill="#fee97d"/></g><g><path d="m511.995 427.11c0 28.807-14.35 54.262-36.291 69.607-2.558 1.789-5.219.495-7.972 1.999-12.065 6.588-25.905 10.332-40.62 10.332-15.535 0-30.095-4.173-42.621-11.46-2.042-1.188-4.03.486-5.96-.863-21.947-15.345-36.302-40.803-36.302-69.615 0-46.879 38.003-84.882 84.882-84.882s84.884 38.003 84.884 84.882z" fill="#8ac9fe"/><path d="m511.995 427.107c0 28.809-14.35 54.266-36.29 69.612-1.146.802-3.661-1.253-4.848-.507-13.064 8.208-27.179 12.837-43.745 12.837-13.838 0-26.899-3.316-38.443-9.191 6.132 1.399 12.5 5.09 19.054 5.09 46.873 0 84.878-38.005 84.878-84.878 0-33.046-18.879-61.678-46.431-75.69 37.697 8.641 65.825 42.407 65.825 82.727z" fill="#60b7ff"/><path d="m475.706 496.72c-13.763 9.621-30.528 15.275-48.597 15.275s-34.812-5.643-48.575-15.275c.559-4.69 1.414-9.029 2.487-13.061 12.634-47.216 79.552-47.216 92.175 0 1.086 4.032 1.929 8.371 2.51 13.061z" fill="#fef0ae"/><path d="m457.447 506.408c.144-.093.278-.185.422-.288-.638-5.103-1.554-9.825-2.726-14.208-6.862-25.628-28.406-38.468-50.001-38.519 24.743-12.428 59.343-2.335 68.057 30.268 1.08 4.033 1.924 8.364 2.51 13.056-5.628 3.93-11.75 7.202-18.262 9.691z" fill="#fee97d"/><circle cx="427.112" cy="421.864" fill="#fef0ae" r="35.663"/><path d="m462.776 421.86c0 19.702-15.967 35.669-35.659 35.669-10.957 0-20.762-4.938-27.305-12.716 3.128.895 6.44 1.379 9.856 1.379 19.702 0 35.669-15.967 35.669-35.669 0-8.735-3.148-16.739-8.364-22.943 14.897 4.279 25.803 18.004 25.803 34.28z" fill="#fee97d"/></g><g><path d="m236.796 330.821h-19.201c-4.261 0-7.716-3.455-7.716-7.716 0-4.262 3.455-7.716 7.716-7.716h19.201c4.261 0 7.716 3.455 7.716 7.716.001 4.261-3.454 7.716-7.716 7.716z" fill="#8ac9fe"/></g><g><path d="m292.364 358.905h-45.967c-4.261 0-7.716-3.455-7.716-7.716 0-4.262 3.455-7.716 7.716-7.716h45.967c4.262 0 7.716 3.455 7.716 7.716s-3.454 7.716-7.716 7.716z" fill="#8ac9fe"/></g><g><path d="m292.364 78.851h-45.967c-4.261 0-7.716-3.455-7.716-7.716s3.455-7.716 7.716-7.716h45.967c4.262 0 7.716 3.455 7.716 7.716 0 4.262-3.454 7.716-7.716 7.716z" fill="#8ac9fe"/></g><g><path d="m262.968 108.248h-45.968c-4.261 0-7.716-3.455-7.716-7.716s3.455-7.716 7.716-7.716h45.968c4.262 0 7.716 3.455 7.716 7.716s-3.454 7.716-7.716 7.716z" fill="#8ac9fe"/></g></g></svg>