<svg enable-background="new 0 0 128 128" viewBox="0 0 128 128" xmlns="http://www.w3.org/2000/svg"><g id="Layer_1" display="none"/><g id="Layer_2"><g><path d="m64 28.47c-19.58 0-35.51 15.93-35.51 35.51s15.93 35.5 35.51 35.5 35.51-15.93 35.51-35.51-15.93-35.5-35.51-35.5zm0 67.01c-17.37 0-31.51-14.13-31.51-31.51s14.14-31.5 31.51-31.5 31.51 14.13 31.51 31.5-14.14 31.51-31.51 31.51z"/><path d="m64 17.22c1.1 0 2-.9 2-2v-11.22c0-1.1-.9-2-2-2s-2 .9-2 2v11.22c0 1.1.9 2 2 2z"/><path d="m64 110.73c-1.1 0-2 .9-2 2v11.22c0 1.1.9 2 2 2s2-.9 2-2v-11.22c0-1.11-.9-2-2-2z"/><path d="m104.99 20.15-7.93 7.93c-.78.78-.78 2.05 0 2.83.39.39.9.59 1.41.59s1.02-.2 1.41-.59l7.93-7.93c.78-.78.78-2.05 0-2.83s-2.04-.78-2.82 0z"/><path d="m28.11 97.03-7.93 7.93c-.78.78-.78 2.05 0 2.83.39.39.9.59 1.41.59s1.02-.2 1.41-.59l7.93-7.93c.78-.78.78-2.05 0-2.83s-2.04-.78-2.82 0z"/><path d="m123.97 61.97h-11.22c-1.1 0-2 .9-2 2s.9 2 2 2h11.22c1.1 0 2-.9 2-2s-.89-2-2-2z"/><path d="m15.25 61.97h-11.22c-1.1 0-2 .9-2 2s.9 2 2 2h11.22c1.1 0 2-.9 2-2s-.9-2-2-2z"/><path d="m99.89 97.03c-.78-.78-2.05-.78-2.83 0s-.78 2.05 0 2.83l7.93 7.93c.39.39.9.59 1.41.59s1.02-.2 1.41-.59c.78-.78.78-2.05 0-2.83z"/><path d="m28.11 30.91c.39.39.9.59 1.41.59s1.02-.2 1.41-.59c.78-.78.78-2.05 0-2.83l-7.93-7.93c-.78-.78-2.05-.78-2.83 0s-.78 2.05 0 2.83z"/></g></g></svg>