<svg id="Layer_1" enable-background="new 0 0 64 64" height="512" viewBox="0 0 64 64" width="512" xmlns="http://www.w3.org/2000/svg"><path d="m60 32c0 6.7-2.36 12.85-6.31 17.67-4.63 5.69-11.46 9.53-19.19 10.21-.33.04-.66.06-1 .08-.5.03-1 .04-1.5.04-15.44 0-28-12.56-28-28 0-8.74 4.02-16.55 10.31-21.69 4.82-3.94 10.99-6.31 17.69-6.31.5 0 1 .01 1.5.04.34.02.67.04 1 .08 14.27 1.26 25.5 13.28 25.5 27.88z" fill="#eda900"/><path d="m60 32c0 6.7-2.36 12.85-6.31 17.67-4.22 3.46-9.46 5.7-15.19 6.21-.33.04-.66.06-1 .08-.5.03-1 .04-1.5.04-15.44 0-28-12.56-28-28 0-6.7 2.37-12.87 6.31-17.69 4.82-3.94 10.99-6.31 17.69-6.31.5 0 1 .01 1.5.04.34.02.67.04 1 .08 14.27 1.26 25.5 13.28 25.5 27.88z" fill="#ffc512"/><g fill="#512c04"><path d="m19.5 27c0-1.654 1.346-3 3-3s3 1.346 3 3h2c0-2.757-2.243-5-5-5s-5 2.243-5 5z"/><path d="m41.5 24c1.654 0 3 1.346 3 3h2c0-2.757-2.243-5-5-5s-5 2.243-5 5h2c0-1.654 1.346-3 3-3z"/><path d="m43.3 45.77c-.66.72-1.4 1.34-2.23 1.86-.16.12-.33.22-.51.32-.09.06-.18.11-.27.16-2.26 1.26-5.04 1.89-8.29 1.89s-6.03-.63-8.29-1.89c-.09-.05-.18-.1-.27-.16-.18-.1-.35-.2-.51-.32-.83-.52-1.57-1.14-2.23-1.86-4.11-4.41-3.72-10.58-3.7-10.84.04-.52.48-.93 1-.93h28c.52 0 .96.41 1 .93.02.26.41 6.43-3.7 10.84z"/></g><path d="m37.287 37.667h-10.574c-2.025 0-3.667-1.642-3.667-3.667h17.908c0 2.025-1.642 3.667-3.667 3.667z" fill="#fff"/><path d="m41.07 47.63c-.16.12-.33.22-.51.32-.09.06-.18.11-.27.16-2.26 1.26-5.04 1.89-8.29 1.89s-6.03-.63-8.29-1.89c-.09-.05-.18-.1-.27-.16-.18-.1-.35-.2-.51-.32.52-1.17 1.72-3.17 3.88-3.82 3.13-.93 5.19 1.07 5.19 1.07s2.06-2 5.19-1.07c2.16.65 3.36 2.65 3.88 3.82z" fill="#f44040"/></svg>